<?xml version="1.0" encoding="UTF-8" standalone="no"?>
<svg
   version="1.1"
   id="Layer_1"
   width="1000.0001"
   height="245.3532"
   viewBox="-15 -30 1000.0001 245.3532"
   sodipodi:docname="dts.svg"
   inkscape:version="1.4.3 (0d15f75, 2025-12-25)"
   xmlns:inkscape="http://www.inkscape.org/namespaces/inkscape"
   xmlns:sodipodi="http://sodipodi.sourceforge.net/DTD/sodipodi-0.dtd"
   xmlns="http://www.w3.org/2000/svg"
   xmlns:svg="http://www.w3.org/2000/svg">
  <defs
     id="defs1" />
  <sodipodi:namedview
     id="namedview1"
     pagecolor="#ffffff"
     bordercolor="#000000"
     borderopacity="0.25"
     inkscape:showpageshadow="2"
     inkscape:pageopacity="0.0"
     inkscape:pagecheckerboard="0"
     inkscape:deskcolor="#d1d1d1"
     inkscape:current-layer="Layer_1" />
  <path
     d="m 484.90971,138.29431 c 0.53681,25.5895 12.04617,38.9619 12.04617,38.9619 7.78252,10.5821 22.51348,11.7258 22.51348,11.7258 8.28852,1.0127 19.82407,-0.7987 19.82407,-0.7987 l 0.12785,-102.653105 c 0,0 -11.18281,-1.3278 -19.95192,-0.2734 0,0 -14.35358,0.6785 -23.16658,12.7378 0,0 -11.12659,14.185705 -11.39307,38.011505 z m 150.50888,72.9069 c -46.9262,0 -83.47288,0.7648 -83.47288,0.7648 -45.42206,1.2038 -67.71451,0.6 -67.71451,0.6 -47.60703,0 -87.45463,-32.347 -88.5267,-76.1625 -1.01816,-41.164605 32.1575,-74.851606 82.7674,-77.537206 0,0 22.3841,-2.1341 60.95015,3.0884 l -0.12785,-4.4323 0.0601,-82.550299 95.96958,-0.2618 -0.0346,88.931799 h 47.01939 v -29.4619 l 93.20248,-40.9804996 0.0693,70.3730996 33.63776,-0.06 -0.29189,24.592901 c -18.19363,-0.5552 -33.41518,-0.5021 -33.41518,-0.5021 v 45.756305 c 0,2.2759 -0.0678,23.9083 0.7563,29.1901 0,0 1.30543,12.6345 11.51012,20.9331 0,0 5.91026,5.4543 18.82825,6.5194 0,0 4.31986,0.4552 12.39504,0.4028 h 22.13303 l 0.70547,-0.025 c 16.5601,-0.069 21.57696,-3.0837 21.57696,-3.0837 7.09554,-3.3333 11.37227,-10.0846 11.37227,-17.6777 0,-5.7115 -2.54386,-10.6498 -6.36465,-14.4721 l -0.1471,-0.1641 -24.18783,-23.1743 c -7.60846,-7.1109 -11.57636,-12.9103 -13.13209,-15.4695 l -0.16251,-0.2526 c -3.04138,-4.9899 -4.79428,-10.8278 -4.79428,-17.101605 0,-12.1462 6.78593,-22.8777 16.64713,-28.5693 l 0.6531,-0.3481 c 8.94086,-5.630701 55.1508,-22.104501 138.72611,-2.817201 l -0.66003,21.164101 -1.75213,-0.1425 c 0,0 -22.29861,-2.0733 -31.25795,-0.3689 l -0.21333,0.035 c -6.92225,1.1414 -12.1794,6.4201 -12.1794,13.455505 0,3.4658 1.42634,7.1641 3.69294,9.4407 l 0.52371,0.5792 33.50838,32.7644 0.28265,0.3019 c 6.81288,6.846 11.0288,16.2759 11.0288,26.7047 0,16.5948 -12.34194,31.7031 -27.18457,36.8309 0,0 -9.51694,3.7622 -25.15053,4.7334 0,0 -7.37819,0.5592 -28.4299,0.9704 h -1.13446 c -75.94835,0.8503 -154.88428,-0.6007 -154.88428,-0.6007 l -1.94313,-0.078 c -50.64148,-1.5719 -60.75298,-39.511 -60.75298,-39.511 -2.81573,-7.017 -3.16769,-24.489 -3.16769,-24.489 l 0.0839,-61.487705 -47.01014,0.052 -0.008,123.597705"
     id="path8160"
     style="fill-opacity:1" />
  <path
     style="fill:#fcb717"
     d="m -5.3708741,52.704204 c 23.7411291,-25.5148 93.9040041,-40.6416 175.1133641,-35.8142 92.95823,5.5236 167.87996,35.6864 175.12876,69.056101 v -0.3088 c 0.51139,-13.9239 0,-22.268601 0,-22.268601 C 342.87498,27.843304 262.52512,0.35760438 164.17573,1.7616044 83.078814,2.9330044 14.737383,23.428704 -7.2862763,50.506204 c 0,0 0.9488442,1.1552 1.8383856,2.1133 l 0.077017,0.085 z"
     id="path8162" />
  <path
     style="fill:#fcb717"
     d="m 16.638923,69.606304 c 32.940759,-16.222 89.541017,-24.901 153.166717,-21.1134 92.9436,5.536 167.86302,35.694101 175.10411,69.054606 l 0.009,-0.2965 c 0.52833,-13.9415 0,-22.271605 0,-22.271605 -1.98857,-35.527001 -82.3338,-63.011901 -180.70476,-61.604001 -64.67467,0.9419 -121.188668,14.1171 -152.6045,33.1772 0,0 2.418321,1.5372 4.917509,2.989 l 0.111674,0.065 z"
     id="path8164" />
  <path
     style="fill:#fcb717"
     d="m 58.512835,87.393205 c 30.977605,-6.819 69.599885,-9.6856 111.202695,-7.2156 92.9436,5.5328 167.88073,35.719505 175.10874,69.103105 l 0.0223,-0.3181 c 0.51447,-13.9231 0,-22.2632 0,-22.2632 -2.00628,-35.526205 -82.33072,-63.039606 -180.71785,-61.629406 -45.429,0.6577 -86.87393,7.387401 -118.388344,17.918701 0,0 6.571054,2.4591 12.63919,4.3499 l 0.133239,0.055 z"
     id="path8166" />
  <path
     style="fill:#fcb717"
     d="m -13.771842,31.840404 c 7.8125613,-33.3234996 84.202224,-60.430999 177.942182,-61.788099 89.75126,-1.2846 163.34599,21.2319994 177.32142,52.219599 0,0 1.45176,3.2632 1.97085,6.6303 0,0 1.39631,5.6392 1.39631,24.1879 l -0.0239,1.1714 C 337.5246,20.917204 262.64986,-9.3048956 169.76941,-14.836296 75.503434,-20.432995 -2.953354,1.9434044 -13.637864,31.876604 l -0.134008,-0.036 z"
     id="path8168" />
  <path
     style="fill:#f26522"
     d="m 337.43375,134.88091 c -22.02366,27.079 -90.35738,47.5562 -171.44582,48.7068 -98.348629,1.4171 -178.690782,-26.0701 -180.704766,-61.5817 0,0 -0.528333,-8.3586 0,-22.307805 l 0.0092,-0.2919 c 7.2403285,33.409005 82.162825,63.557105 175.130304,69.089205 81.19241,4.8182 151.32833,-10.324 175.11336,-35.8396 0,0 0.90571,0.9927 1.84531,2.1434 l 0.0524,0.082 z"
     id="path8170" />
  <path
     style="fill:#f26522"
     d="m 318.54544,118.80911 c -31.42507,19.06 -87.93907,32.2568 -152.60449,33.1941 -98.387908,1.4179 -178.690782,-26.0855 -180.714008,-61.629405 0,0 -0.51062,-8.3394 0,-22.271701 l 0.01694,-0.3088 c 7.2403281,33.369706 82.154353,63.550206 175.096414,69.079206 63.60799,3.7754 120.21825,-4.8689 153.18289,-21.1071 0,0 2.40061,1.3339 4.90056,2.9628 l 0.12169,0.081 z"
     id="path8172" />
  <path
     style="fill:#f26522"
     d="m 284.40938,102.36991 c -31.51364,10.5266 -72.94008,17.2555 -118.37832,17.9048 -98.354021,1.4263 -178.703876,-26.086305 -180.734803,-61.595506 0,0 -0.506769,-8.3448 0.0085,-22.2679 l 0.02157,-0.3088 c 7.2364771,33.3698 82.166676,63.540201 175.116436,69.073106 41.58587,2.4645 80.23433,-0.3959 111.18652,-7.211105 0,0 5.767,1.7822 12.58759,4.316005 l 0.19254,0.089 z"
     id="path8174" />
  <path
     style="fill:#f26522"
     d="m 343.93472,153.54971 c -7.80717,33.3259 -84.1976,60.4103 -177.95218,61.7496 -89.733556,1.3046 -163.34061,-21.2158 -177.302175,-52.1972 0,0 -1.460234,-3.2732 -1.976245,-6.6304 0,0 -1.407863,-5.643 -1.407863,-24.2132 l 0.02542,-1.1507 c 7.3011709,33.3536 82.178998,63.5541 175.057907,69.0939 94.27291,5.5999 172.73663,-16.7842 183.41343,-46.7021 l 0.14171,0.05 z"
     id="path8176" />
</svg>
